<svg xmlns="http://www.w3.org/2000/svg" xmlns:xlink="http://www.w3.org/1999/xlink" viewBox="0 0 668.15 190.54"><defs><style>.cls-1{isolation:isolate;}.cls-2{fill:#ed662f;}.cls-3,.cls-4,.cls-5,.cls-9{mix-blend-mode:multiply;}.cls-3{fill:url(#linear-gradient);}.cls-4{fill:url(#linear-gradient-2);}.cls-5{fill:url(#linear-gradient-3);}.cls-6{fill:#fff;}.cls-7{fill:#011f72;}.cls-8{fill:#8c0303;}.cls-9{opacity:0.64;fill:url(#linear-gradient-4);}.cls-10{fill:#ed4c21;}</style><linearGradient id="linear-gradient" x1="107.63" y1="91.12" x2="55.54" y2="137.29" gradientUnits="userSpaceOnUse"><stop offset="0.49" stop-color="#f6e6d7"/><stop offset="1" stop-color="#ea6453"/></linearGradient><linearGradient id="linear-gradient-2" x1="40.05" y1="95.82" x2="26.87" y2="154.97" gradientUnits="userSpaceOnUse"><stop offset="0.49" stop-color="#f6e6d7"/><stop offset="1" stop-color="#ed662f"/></linearGradient><linearGradient id="linear-gradient-3" x1="14.48" y1="62.19" x2="97.35" y2="62.19" xlink:href="#linear-gradient"/><linearGradient id="linear-gradient-4" x1="29.45" y1="4.54" x2="47.9" y2="34.19" xlink:href="#linear-gradient"/></defs><g class="cls-1"><g id="Layer_1" data-name="Layer 1"><path class="cls-2" d="M46.84,169.57c7.34-8.86,12.88-20.27,15-38.29a2.88,2.88,0,0,0-3-3.22,3,3,0,0,0-2.72,2.72c-2.13,17.86-9.46,32.5-21.83,43.54a65.33,65.33,0,0,1-13.14,9.1,3.28,3.28,0,0,1-4.79-2.93l0-87.13a3.81,3.81,0,0,1,6.4-2.78,52.73,52.73,0,0,0,70.19.09,3.8,3.8,0,0,1,6.36,3c-2.41,51.78-38.69,72.57-50.48,78a1.48,1.48,0,0,1-2-.65A1.87,1.87,0,0,1,46.84,169.57Z"/><path class="cls-3" d="M92.92,90.67c-7.27,7.41-23.32,14.18-36.83,13.27a162.55,162.55,0,0,1,.7,25.15,2.87,2.87,0,0,1,2.93-.94,3,3,0,0,1,2.11,3.26c-1.84,15.4-7.24,27-13.36,35.6-.57.81-1.1,1.65-1.6,2.51l0,.06a1.51,1.51,0,0,0,2,2.11c12.88-6.24,48.13-27.83,50.48-78C99.44,90.29,95.29,88.25,92.92,90.67Z"/><path class="cls-2" d="M25.57,36.42l.13,0c.59-.09,1.19-.17,1.78-.24l.24,0a44.54,44.54,0,0,1,5.15-.27h.58l1.34.05.88,0c.41,0,.81.05,1.21.09l1.13.12,1,.12c.67.1,1.35.21,2,.34.27,0,.53.1.79.16l1.41.3.8.2,1.45.4.69.2c.7.22,1.4.44,2.09.69.16-.64.34-1.29.54-1.92.08-.29.19-.58.28-.86s.22-.7.34-1,.29-.74.44-1.12.18-.49.29-.74c.18-.43.37-.85.57-1.28.08-.18.15-.36.24-.53.22-.48.47-1,.71-1.42.07-.12.12-.24.19-.36.27-.5.56-1,.85-1.5,0-.07.09-.15.14-.23q.48-.8,1-1.56l.08-.12c.36-.53.74-1.06,1.13-1.58l0,0A39.54,39.54,0,0,1,67.41,13.52,43,43,0,0,0,18.06,38.27h0A45.24,45.24,0,0,1,25.57,36.42Z"/><path class="cls-4" d="M34.17,174a66.76,66.76,0,0,0,8.19-8.74C62.88,138.51,56.09,104,56.09,103.94s-19.16.17-33.39-13.38c0,0-5.05-3.29-6.37,2.81l0,87.12a3.07,3.07,0,0,0,4.5,2.72A67,67,0,0,0,34.17,174Z"/><path class="cls-2" d="M76.22,16.62a29.82,29.82,0,0,0-21.56,18.5,27.91,27.91,0,0,0-1.34,13.73,30,30,0,0,0-11.5-6.59A29.12,29.12,0,0,0,20,44a29.58,29.58,0,0,0-4.67,3,43.57,43.57,0,0,0-.84,7.46A43.09,43.09,0,1,0,76.22,16.62Z"/><path class="cls-5" d="M65,85.47A43.08,43.08,0,0,1,26.28,25.84,43.09,43.09,0,1,0,97.35,72,43,43,0,0,1,65,85.47Z"/><polygon class="cls-2" points="41.49 45.14 53.55 51.25 56.6 39.21 68.96 37.82 81.69 47.03 77.49 75.3 69.39 85.67 48.63 72.99 41.49 45.14"/><circle class="cls-6" cx="72.32" cy="44.49" r="12.67"/><circle class="cls-7" cx="72.32" cy="44.49" r="9.46"/><circle class="cls-6" cx="68.62" cy="40.87" r="2.58"/><circle class="cls-6" cx="39.69" cy="63.24" r="12.43"/><circle class="cls-7" cx="39.69" cy="63.24" r="9.28"/><circle class="cls-6" cx="36.06" cy="59.69" r="2.53"/><path class="cls-8" d="M5.6,71h0a1.54,1.54,0,0,1-1.51-1.56A29,29,0,0,1,41.82,42.26,28.85,28.85,0,0,1,58.08,54.67a1.53,1.53,0,0,1-2.63,1.57c-5.91-9.93-21-16.12-34.07-9.51A26,26,0,0,0,7.13,69.52,1.54,1.54,0,0,1,5.6,71Z"/><path class="cls-8" d="M56.77,57a1.54,1.54,0,0,1-1.41-.93,28.27,28.27,0,0,1-.7-20.94,29.47,29.47,0,0,1,44.14-14,1.53,1.53,0,0,1-1.74,2.52A26.41,26.41,0,0,0,57.53,36.17a25.27,25.27,0,0,0,.64,18.68,1.52,1.52,0,0,1-.79,2A1.49,1.49,0,0,1,56.77,57Z"/><path class="cls-8" d="M61.32,69.4A5.38,5.38,0,0,1,56,64.7l-1.39-11a1.16,1.16,0,0,1,1.92-1L64.87,60a5.37,5.37,0,0,1-3.55,9.41Z"/><path class="cls-9" d="M51.67,29.68c.07-.12.12-.24.19-.36.27-.5.56-1,.85-1.5,0-.07.09-.15.14-.23q.48-.8,1-1.56l.08-.12c.36-.53.74-1.06,1.13-1.58l0,0A39.54,39.54,0,0,1,67.41,13.52c-1.3-.3-2.62-.54-4-.73l-.61-.08-1.35-.15-1.14-.09-.49,0C55.05,16.1,48.73,22.79,45.07,34.23a40.05,40.05,0,0,0-24.41-1c-.41.69-.82,1.37-1.19,2.08l-.11.22c-.42.81-.82,1.63-1.19,2.46l-.1.24a45.37,45.37,0,0,1,7.5-1.85l.13,0c.59-.09,1.19-.17,1.78-.24l.24,0a44.54,44.54,0,0,1,5.15-.27h.58l1.34.05.88,0c.41,0,.81.05,1.21.09l1.13.12,1,.12c.67.1,1.35.21,2,.34.27,0,.53.1.79.16l1.41.3.8.2,1.45.4.69.2c.7.22,1.4.44,2.09.69.16-.64.34-1.29.54-1.92.08-.29.19-.58.28-.86s.22-.7.34-1,.29-.74.44-1.12.18-.49.29-.74c.18-.43.37-.85.57-1.28"/><path class="cls-7" d="M126.41,48.4h54.7a1.78,1.78,0,0,1,1.78,1.78V64.77a1.78,1.78,0,0,1-1.78,1.78h-35.6a.89.89,0,0,0-.89.89v15a.89.89,0,0,0,.89.89h31a1.78,1.78,0,0,1,1.78,1.78V99.75a1.78,1.78,0,0,1-1.78,1.78h-31a.89.89,0,0,0-.89.89V122.6a.89.89,0,0,0,.89.89h35.6a1.78,1.78,0,0,1,1.78,1.78v14.59a1.78,1.78,0,0,1-1.78,1.78h-54.7a1.78,1.78,0,0,1-1.78-1.78V50.18A1.78,1.78,0,0,1,126.41,48.4Z"/><path class="cls-7" d="M260.88,47.42v92.44a1.78,1.78,0,0,1-1.78,1.78H244.51a1.78,1.78,0,0,1-1.78-1.78V138a.88.88,0,0,0-1.43-.69,24.58,24.58,0,0,1-6.92,3.87,31.19,31.19,0,0,1-34.19-8,34.45,34.45,0,0,1-6.71-10.92,37.86,37.86,0,0,1,0-26.69,34.45,34.45,0,0,1,6.71-10.92,30.94,30.94,0,0,1,23.08-10.06,37.88,37.88,0,0,1,11,1.45,21.29,21.29,0,0,1,7.06,3.65.89.89,0,0,0,1.42-.71V47.42a1.78,1.78,0,0,1,1.78-1.78H259.1A1.78,1.78,0,0,1,260.88,47.42Zm-18.15,61.74a24.53,24.53,0,0,0-1.32-8.62,14.35,14.35,0,0,0-3.68-5.65,14.53,14.53,0,0,0-5.46-3.16,21.63,21.63,0,0,0-6.64-1A15.55,15.55,0,0,0,219,92.19a17.46,17.46,0,0,0-9,9.67A19.73,19.73,0,0,0,210,116a18,18,0,0,0,3.62,5.72A17.72,17.72,0,0,0,219,125.6a15.55,15.55,0,0,0,6.64,1.44,17.41,17.41,0,0,0,12-4.4Q242.59,118.23,242.73,109.16Z"/><path class="cls-7" d="M315.79,76.41h14.59a1.78,1.78,0,0,1,1.78,1.78v61.67a1.78,1.78,0,0,1-1.78,1.78H315.91a1.78,1.78,0,0,1-1.78-1.71l-.12-3.29a28.38,28.38,0,0,1-7.17,3.62,26.3,26.3,0,0,1-8.61,1.38,36.29,36.29,0,0,1-8.09-1,22.48,22.48,0,0,1-15.12-12q-2.7-5.13-2.7-13.28V78.19a1.78,1.78,0,0,1,1.78-1.78h14.59a1.78,1.78,0,0,1,1.78,1.78v36.39a11.91,11.91,0,0,0,1,5.11A8.81,8.81,0,0,0,294.1,123a11.12,11.12,0,0,0,3.77,1.83,16,16,0,0,0,4.37.59,13.52,13.52,0,0,0,3.77-.59,11.94,11.94,0,0,0,3.83-1.9c4.83-3.55,4.17-9.25,4.17-14.5V78.19A1.78,1.78,0,0,1,315.79,76.41Z"/><path class="cls-10" d="M385.55,107.45q7.23,5.13,7.23,14.59a17,17,0,0,1-1.67,7.45,22,22,0,0,1-5.95,7.42,26.85,26.85,0,0,1-8.29,4.53,30.57,30.57,0,0,1-10.13,1.65,30.23,30.23,0,0,1-7.95-1.06,31.18,31.18,0,0,1-7.17-2.89,23.72,23.72,0,0,1-5.72-4.4,17,17,0,0,1-2.87-4,1.79,1.79,0,0,1,.81-2.43l5.15-2.48q2.82-1.35,5.1-2.52a1.75,1.75,0,0,1,2.16.44,13,13,0,0,0,2.87,2.48,12.26,12.26,0,0,0,6.83,1.64c3,0,5.18-.7,6.58-2.1a5.89,5.89,0,0,0,2.1-4,3.12,3.12,0,0,0-1.44-2.43,12.1,12.1,0,0,0-3.29-1.78,13.64,13.64,0,0,0-4.34-1.11,16.77,16.77,0,0,1-3.95-.73q-7.1-1.71-10.85-4.53a20.88,20.88,0,0,1-5.45-5.72A12.81,12.81,0,0,1,343.4,100c-.13-1.75-.2-3.15-.2-4.21a18.33,18.33,0,0,1,1.84-8,20.88,20.88,0,0,1,5.07-6.64,25.73,25.73,0,0,1,7.49-4.54,24.39,24.39,0,0,1,9.14-1.71,25.42,25.42,0,0,1,14.47,4.47,22.63,22.63,0,0,1,5.19,5A20,20,0,0,1,389,89a1.79,1.79,0,0,1-1.09,2.37L377.05,95a1.81,1.81,0,0,1-2.11-.82,7.45,7.45,0,0,0-2.61-2.49,9.93,9.93,0,0,0-5.19-1.45,5.79,5.79,0,0,0-4.47,1.84A5.48,5.48,0,0,0,361,95.74a4.11,4.11,0,0,0,1.64,3.49,10.35,10.35,0,0,0,3.62,1.77c1,.18,1.9.33,2.82.46s1.82.29,2.7.46a58.73,58.73,0,0,1,8,2.37A25.74,25.74,0,0,1,385.55,107.45Z"/><path class="cls-10" d="M429.28,125.46a10.78,10.78,0,0,0,7.43,2.5,19.58,19.58,0,0,0,5.11-.69,1.77,1.77,0,0,1,2.25,1.7v11.36a1.79,1.79,0,0,1-1.26,1.72c-1.82.53-3.72,1-5.71,1.37a38.33,38.33,0,0,1-7.36.72,30.17,30.17,0,0,1-8-1,17.21,17.21,0,0,1-11.64-10.46,27.75,27.75,0,0,1-1.77-10.58V93.48a.89.89,0,0,0-.89-.89h-6.67A1.78,1.78,0,0,1,399,90.81V78.19a1.78,1.78,0,0,1,1.78-1.78h6.67a.89.89,0,0,0,.89-.89V63.59a1.78,1.78,0,0,1,1.78-1.78h14.59a1.78,1.78,0,0,1,1.78,1.78V75.52a.89.89,0,0,0,.89.89h15a1.78,1.78,0,0,1,1.78,1.78V90.81a1.78,1.78,0,0,1-1.78,1.78h-15a.89.89,0,0,0-.89.89v24.85A9,9,0,0,0,429.28,125.46Z"/><path class="cls-10" d="M521,78.19v61.67a1.78,1.78,0,0,1-1.78,1.78H505.41a1.77,1.77,0,0,1-1.77-1.74l-.09-3.76a.53.53,0,0,0-.95-.31,17.84,17.84,0,0,1-8.23,5.68,36.1,36.1,0,0,1-11.11,1.71,30.21,30.21,0,0,1-12.82-2.7,32,32,0,0,1-10.19-7.36,33.75,33.75,0,0,1-6.78-10.92,37.86,37.86,0,0,1,0-26.69,33.75,33.75,0,0,1,6.78-10.92,32,32,0,0,1,10.19-7.36,30.21,30.21,0,0,1,12.82-2.7,32.78,32.78,0,0,1,11.57,2,19.65,19.65,0,0,1,7.11,4.54.88.88,0,0,0,1.51-.64l-.06-2.2a1.78,1.78,0,0,1,1.78-1.83h14.05A1.78,1.78,0,0,1,521,78.19Zm-18.15,31a23.56,23.56,0,0,0-1.38-8.62,15.53,15.53,0,0,0-3.68-5.65,13.88,13.88,0,0,0-5.39-3.16,21.63,21.63,0,0,0-6.64-1,15.51,15.51,0,0,0-6.64,1.44,18.66,18.66,0,0,0-5.46,3.88,17.11,17.11,0,0,0-3.68,5.79A19.59,19.59,0,0,0,470,116a17.3,17.3,0,0,0,3.68,5.72,18.66,18.66,0,0,0,5.46,3.88,15.51,15.51,0,0,0,6.64,1.44,17.4,17.4,0,0,0,12-4.4Q502.73,118.23,502.85,109.16Z"/><path class="cls-10" d="M565,90.75a13.18,13.18,0,0,0-6.08,1.34,16.76,16.76,0,0,0-5.39,4.25,19.29,19.29,0,0,0-3.42,6,21.34,21.34,0,0,0-1.25,7.36,19.76,19.76,0,0,0,1.25,7.17,16.62,16.62,0,0,0,3.42,5.52,15.81,15.81,0,0,0,5.06,3.62,14.71,14.71,0,0,0,6.18,1.31,17.87,17.87,0,0,0,8-1.9,19.23,19.23,0,0,0,5.47-4,1.76,1.76,0,0,1,2.5,0l8.65,8.55a1.77,1.77,0,0,1,.09,2.45,34.09,34.09,0,0,1-10.2,7.54,32.44,32.44,0,0,1-14.47,3.29,32.82,32.82,0,0,1-13.28-2.7,34.07,34.07,0,0,1-10.78-7.36,35.27,35.27,0,0,1-7.3-10.92,34.33,34.33,0,0,1,0-26.69,35.27,35.27,0,0,1,7.3-10.92,34.07,34.07,0,0,1,10.78-7.36,34,34,0,0,1,28.15.72A34.17,34.17,0,0,1,590,85.9a1.78,1.78,0,0,1-.27,2.57l-10,7.68a1.78,1.78,0,0,1-2.28-.09,23.93,23.93,0,0,0-5.8-3.93A16.44,16.44,0,0,0,565,90.75Z"/><path class="cls-10" d="M637,104.1l25,34.72a1.78,1.78,0,0,1-1.44,2.82H643.34a1.77,1.77,0,0,1-1.48-.8l-16.33-24.67a.53.53,0,0,0-.83-.07l-5.84,6.32a.51.51,0,0,0-.15.36v17.08a1.78,1.78,0,0,1-1.78,1.78H602.34a1.78,1.78,0,0,1-1.77-1.78V47.42a1.77,1.77,0,0,1,1.77-1.78h14.59a1.77,1.77,0,0,1,1.78,1.78V97.55a.54.54,0,0,0,.93.37l19.72-21a1.79,1.79,0,0,1,1.3-.56h17.22a1.78,1.78,0,0,1,1.29,3L637.1,103A.89.89,0,0,0,637,104.1Z"/></g></g></svg>